<?xml version="1.0" encoding="UTF-8"?>
<svg width="427px" height="132px" viewBox="0 0 427 132" version="1.1" xmlns="http://www.w3.org/2000/svg" xmlns:xlink="http://www.w3.org/1999/xlink">
    <!-- Generator: Sketch 46.2 (44496) - http://www.bohemiancoding.com/sketch -->
    <title>Combined Shape</title>
    <desc>Created with Sketch.</desc>
    <defs></defs>
    <g id="Page-1" stroke="none" stroke-width="1" fill="none" fill-rule="evenodd">
        <g id="Artboard" transform="translate(-254.000000, -156.000000)" fill="#FFFFFF">
            <path d="M307.748503,229.214355 L307.748503,228.255859 C307.601041,222.652316 305.536609,217.88446 301.555144,213.952148 C297.524524,210.019837 292.707515,208.053711 287.103972,208.053711 C281.40212,208.053711 276.535958,210.06899 272.505339,214.099609 C268.47472,218.130228 266.45944,222.996391 266.45944,228.698242 C266.45944,234.400094 268.47472,239.290832 272.505339,243.370605 C276.535958,247.401225 281.40212,249.416504 287.103972,249.416504 C292.707515,249.416504 297.524524,247.450378 301.555144,243.518066 C305.536609,239.585755 307.601041,234.817899 307.748503,229.214355 Z M307.748503,202.892578 L307.748503,157.105957 C307.748503,156.466956 308.067998,156.147461 308.706999,156.147461 L319.397917,156.147461 C320.036918,156.147461 320.356413,156.466956 320.356413,157.105957 L320.356413,260.697266 C320.356413,261.336266 320.036918,261.655762 319.397917,261.655762 L308.706999,261.655762 C308.067998,261.655762 307.748503,261.336266 307.748503,260.697266 L307.748503,254.577637 C301.702574,259.394718 294.821133,261.803223 287.103972,261.803223 C282.434352,261.803223 277.985992,260.869313 273.758757,259.001465 C269.678984,257.182771 266.11538,254.651383 263.067839,251.407227 C256.481217,244.427374 253.482875,236.145067 254.072722,226.560059 C254.613414,218.203897 257.931252,211.052113 264.026335,205.104492 C270.121418,199.156871 277.371508,196.011069 285.776823,195.666992 C293.985523,195.322915 301.309343,197.73142 307.748503,202.892578 Z M337.50778,171.409668 C336.131471,172.835131 335.443327,174.530915 335.443327,176.49707 C335.443327,178.414072 336.131471,180.085279 337.50778,181.510742 C338.933243,182.887051 340.629027,183.575195 342.595183,183.575195 C344.512184,183.575195 346.183392,182.887051 347.608854,181.510742 C348.985163,180.085279 349.673308,178.414072 349.673308,176.49707 C349.673308,174.530915 348.985163,172.835131 347.608854,171.409668 C346.183392,170.033359 344.512184,169.345215 342.595183,169.345215 C340.629027,169.345215 338.933243,170.033359 337.50778,171.409668 Z M336.328093,267.70166 L336.328093,196.551758 C336.328093,195.912757 336.647588,195.593262 337.286589,195.593262 L347.830046,195.593262 C348.469046,195.593262 348.788542,195.912757 348.788542,196.551758 L348.788542,267.70166 C348.788542,271.732279 347.879209,275.345036 346.060515,278.540039 C344.290975,281.685888 341.833317,284.04524 338.687468,285.618164 C336.278927,286.847011 333.698386,287.461426 330.945769,287.461426 C326.915149,287.461426 323.03205,286.183444 319.296354,283.627441 C318.755662,283.283364 318.681932,282.840986 319.075163,282.300293 L325.415983,273.89502 C325.760061,273.403481 326.177862,273.329751 326.669401,273.673828 C329.077942,275.197599 331.216104,275.492518 333.083952,274.558594 C335.246723,273.477208 336.328093,271.191586 336.328093,267.70166 Z M369.995085,225.23291 L408.187468,221.915039 C407.106082,217.687804 404.869614,214.320813 401.477995,211.813965 C398.086377,209.257962 394.031241,207.97998 389.312468,207.97998 C384.347925,207.97998 380.0716,209.602035 376.483366,212.846191 C372.895132,216.041194 370.732393,220.170059 369.995085,225.23291 Z M366.677214,205.104492 C372.919758,198.714486 380.538497,195.544108 389.533659,195.593262 C398.332206,195.642416 405.828062,198.886524 412.021452,205.325684 C418.214842,211.71569 421.311491,219.334428 421.311491,228.182129 L421.311491,232.384766 C421.311491,232.974612 421.016572,233.294108 420.426726,233.343262 L371.764616,237.545898 C373.435849,241.084979 375.942659,243.935862 379.285124,246.098633 C382.676743,248.261404 386.387806,249.342773 390.418425,249.342773 C393.957505,249.342773 397.275343,248.50717 400.372038,246.835937 C403.517887,245.115551 406.024698,242.780776 407.892546,239.831543 C408.236623,239.29085 408.679002,239.167967 409.219694,239.462891 L418.288542,244.771484 C418.878389,245.066408 419.001272,245.508786 418.657194,246.098633 C415.658807,250.964868 411.628248,254.798814 406.565397,257.600586 C401.551701,260.402358 396.16943,261.803223 390.418425,261.803223 C381.324955,261.803223 373.53418,258.559114 367.045866,252.070801 C360.557553,245.631641 357.313444,237.840866 357.313444,228.698242 C357.313444,219.359003 360.43467,211.494498 366.677214,205.104492 Z M529.741179,240.200195 L529.741179,228.771973 C529.692025,227.248202 529.667448,225.847337 529.667448,224.569336 L529.667448,222.431152 C529.667448,221.448075 529.618295,220.489588 529.519987,219.555664 C529.274218,217.638662 528.831839,215.770842 528.192839,213.952148 C526.914838,210.216453 524.899558,206.923191 522.14694,204.072266 C519.394323,201.270494 516.150214,199.156908 512.414519,197.731445 C510.595825,197.092445 508.728005,196.62549 506.811003,196.330566 L506.147429,196.256836 C505.852505,196.256836 505.60674,196.232259 505.410124,196.183105 L504.599089,196.183105 C504.304166,196.133952 504.107553,196.109375 504.009245,196.109375 L502.682097,196.109375 L501.281218,196.183105 C497.692984,196.478029 494.325993,197.436515 491.180144,199.058594 C488.378372,200.53321 485.920714,202.450184 483.807097,204.80957 C483.315558,205.350263 482.848603,205.915524 482.406218,206.505371 C481.718063,205.620601 481.005343,204.809574 480.268034,204.072266 C477.515416,201.270494 474.271308,199.156908 470.535612,197.731445 C468.716918,197.092445 466.849098,196.62549 464.932097,196.330566 L464.268522,196.256836 C463.973599,196.256836 463.727833,196.232259 463.531218,196.183105 L462.720183,196.183105 C462.425259,196.133952 462.228647,196.109375 462.130339,196.109375 L460.80319,196.109375 L459.402312,196.183105 C455.814077,196.478029 452.447086,197.436515 449.301237,199.058594 C448.269006,199.599287 447.16306,200.287431 445.983366,201.123047 L445.983366,196.183105 C445.983366,195.544105 445.663871,195.224609 445.02487,195.224609 L434.333952,195.224609 C433.694952,195.224609 433.375456,195.544105 433.375456,196.183105 L433.375456,260.844727 C433.375456,261.483727 433.694952,261.803223 434.333952,261.803223 L445.02487,261.803223 C445.663871,261.803223 445.983366,261.483727 445.983366,260.844727 L445.983366,223.463379 L446.057097,222.578613 C446.057097,222.332844 446.081673,221.988772 446.130827,221.546387 L446.130827,220.956543 L446.204558,220.735352 C446.253712,220.391274 446.327441,219.948896 446.425749,219.408203 C446.671518,218.277664 447.064744,217.171718 447.605437,216.090332 C448.293591,214.714023 449.153771,213.485194 450.186003,212.403809 C452.889467,209.503729 456.231881,207.955405 460.213347,207.758789 L460.950651,207.685059 L461.245573,207.685059 L461.835417,207.758789 L462.572722,207.758789 C462.621876,207.807943 462.744758,207.83252 462.941374,207.83252 L463.310026,207.90625 C464.391412,208.053712 465.423628,208.324054 466.406706,208.717285 C468.47117,209.503747 470.240683,210.708 471.7153,212.330078 C473.23907,213.903003 474.345016,215.721669 475.033171,217.786133 C475.377248,218.818365 475.598437,219.850581 475.696745,220.882812 L475.770476,222.431152 L475.770476,224.569336 C475.770476,225.847337 475.745899,227.248202 475.696745,228.771973 L475.696745,232.827148 C475.696745,236.169613 475.672169,238.627271 475.623015,240.200195 C475.623015,246.295278 475.598438,251.382629 475.549284,255.462402 L475.549284,260.697266 C475.549284,261.336266 475.86878,261.655762 476.50778,261.655762 L487.051237,261.655762 C487.690238,261.655762 488.009733,261.336266 488.009733,260.697266 L488.009733,255.462402 C487.96058,251.382629 487.936003,246.295278 487.936003,240.200195 C487.936003,239.266271 487.911426,238.111172 487.862272,236.734863 L487.862272,232.974609 C487.862272,229.779606 487.837696,227.10076 487.788542,224.937988 L487.936003,222.578613 L487.936003,221.546387 L488.009733,221.177734 L488.009733,220.956543 L488.083464,220.735352 C488.132618,220.391274 488.206347,219.948896 488.304655,219.408203 C488.550425,218.277664 488.94365,217.171718 489.484343,216.090332 C490.172497,214.714023 491.032677,213.485194 492.064909,212.403809 C494.768373,209.503729 498.110788,207.955405 502.092253,207.758789 L502.460905,207.758789 L502.829558,207.685059 L503.124479,207.685059 L503.714323,207.758789 L504.451628,207.758789 C504.500782,207.807943 504.623665,207.83252 504.82028,207.83252 L505.188933,207.90625 C506.270318,208.053712 507.302534,208.324054 508.285612,208.717285 C510.350076,209.503747 512.119589,210.708 513.594206,212.330078 C515.117977,213.903003 516.223923,215.721669 516.912077,217.786133 C517.256154,218.818365 517.477344,219.850581 517.575651,220.882812 L517.649382,222.431152 L517.649382,224.569336 C517.600228,225.847337 517.575651,227.248202 517.575651,228.771973 L517.575651,232.827148 C517.526497,236.169613 517.501921,238.627271 517.501921,240.200195 L517.42819,255.462402 L517.42819,260.697266 C517.42819,261.336266 517.747686,261.655762 518.386687,261.655762 L528.930144,261.655762 C529.569144,261.655762 529.88864,261.336266 529.88864,260.697266 L529.88864,255.462402 C529.839486,251.382629 529.790333,246.295278 529.741179,240.200195 Z M564.219206,243.444336 C568.249825,247.376647 573.066834,249.342773 578.670378,249.342773 C584.372229,249.342773 589.262968,247.327494 593.342741,243.296875 C597.37336,239.266256 599.38864,234.400094 599.38864,228.698242 C599.38864,222.996391 597.37336,218.105652 593.342741,214.025879 C589.262968,209.99526 584.372229,207.97998 578.670378,207.97998 C573.066834,207.97998 568.249825,209.946107 564.219206,213.878418 C560.237741,217.810729 558.173308,222.578585 558.025847,228.182129 L558.025847,229.140625 C558.173308,234.744169 560.237741,239.512025 564.219206,243.444336 Z M558.025847,202.818848 C564.465006,197.657689 571.813403,195.249184 580.071257,195.593262 C588.476572,195.937339 595.726663,199.083141 601.821745,205.030762 C607.916828,210.978383 611.234666,218.130167 611.775358,226.486328 C612.070282,231.205102 611.406714,235.751768 609.784636,240.126465 C608.211711,244.3537 605.876936,248.089339 602.780241,251.333496 C596.242774,258.313349 588.206233,261.803223 578.670378,261.803223 C570.953217,261.803223 564.071775,259.370142 558.025847,254.503906 L558.025847,260.623535 C558.025847,261.262536 557.706351,261.582031 557.067351,261.582031 L546.376433,261.582031 C545.737432,261.582031 545.417937,261.262536 545.417937,260.623535 L545.417937,156.958496 C545.417937,156.319496 545.737432,156 546.376433,156 L557.067351,156 C557.706351,156 558.025847,156.319496 558.025847,156.958496 L558.025847,202.818848 Z M631.507292,226.928711 L667.930144,223.758301 C666.897912,219.678528 664.784326,216.458996 661.589323,214.099609 C658.345166,211.641915 654.462067,210.413086 649.939909,210.413086 C645.171982,210.413086 641.067693,211.96141 637.626921,215.058105 C634.235302,218.105647 632.195446,222.062476 631.507292,226.928711 Z M628.336882,207.685059 C634.284503,201.540822 641.55917,198.493327 650.161101,198.54248 C658.566416,198.640788 665.7182,201.737437 671.616667,207.83252 C677.515134,213.927602 680.464323,221.226846 680.464323,229.730469 L680.464323,233.711914 C680.464323,234.252607 680.193981,234.547526 679.653288,234.59668 L633.203093,238.651855 C634.825171,242.043474 637.209099,244.746897 640.354948,246.762207 C643.599105,248.875824 647.162709,249.932617 651.045866,249.932617 C654.388331,249.932617 657.534133,249.12159 660.483366,247.499512 C663.481754,245.877433 665.890258,243.640965 667.708952,240.790039 C668.003876,240.2985 668.397101,240.200194 668.88864,240.495117 L677.588835,245.508789 C678.129528,245.803712 678.252411,246.221514 677.957487,246.762207 C675.057408,251.431827 671.223462,255.093737 666.455534,257.748047 C661.638453,260.451511 656.501948,261.803223 651.045866,261.803223 C642.296474,261.803223 634.849771,258.706574 628.705534,252.513184 C622.512144,246.319793 619.415495,238.87309 619.415495,230.172852 C619.415495,221.275997 622.389261,213.780141 628.336882,207.685059 Z M631.501188,170.803223 L669.501188,170.803223 C670.053473,170.803223 670.501188,171.250938 670.501188,171.803223 L670.501188,181.803223 C670.501188,182.355507 670.053473,182.803223 669.501188,182.803223 L631.501188,182.803223 C630.948904,182.803223 630.501188,182.355507 630.501188,181.803223 L630.501188,171.803223 C630.501188,171.250938 630.948904,170.803223 631.501188,170.803223 Z" id="Combined-Shape"></path>
        </g>
    </g>
</svg>