<?xml version="1.0" encoding="UTF-8"?>
<svg width="183px" height="55px" viewBox="0 0 183 55" version="1.1" xmlns="http://www.w3.org/2000/svg" xmlns:xlink="http://www.w3.org/1999/xlink">
    <!-- Generator: Sketch 46.2 (44496) - http://www.bohemiancoding.com/sketch -->
    <title>djembé</title>
    <desc>Created with Sketch.</desc>
    <defs>
        <path d="M59.1244827,38.6191406 L59.1244827,38.2255859 C59.0639355,35.9247932 58.2162877,33.9671305 56.5815139,32.3525391 C54.9265577,30.7379477 52.9487129,29.9306641 50.6479202,29.9306641 C48.3067626,29.9306641 46.3087357,30.7581297 44.6537795,32.4130859 C42.9988234,34.0680421 42.1713577,36.066069 42.1713577,38.4072266 C42.1713577,40.7483841 42.9988234,42.756502 44.6537795,44.4316406 C46.3087357,46.0865968 48.3067626,46.9140625 50.6479202,46.9140625 C52.9487129,46.9140625 54.9265577,46.1067789 56.5815139,44.4921875 C58.2162877,42.8775961 59.0639355,40.9199334 59.1244827,38.6191406 Z M59.1244827,27.8115234 L59.1244827,9.01171875 C59.1244827,8.74934765 59.2556663,8.61816406 59.5180374,8.61816406 L63.9076858,8.61816406 C64.1700569,8.61816406 64.3012405,8.74934765 64.3012405,9.01171875 L64.3012405,51.5458984 C64.3012405,51.8082695 64.1700569,51.9394531 63.9076858,51.9394531 L59.5180374,51.9394531 C59.2556663,51.9394531 59.1244827,51.8082695 59.1244827,51.5458984 L59.1244827,49.0332031 C56.6420484,51.0110776 53.8165558,52 50.6479202,52 C48.7305929,52 46.9041137,51.6165403 45.168428,50.8496094 C43.4932894,50.1028608 42.0300879,49.0634832 40.7787795,47.7314453 C38.0743389,44.8655456 36.8432315,41.4648634 37.0854202,37.5292969 C37.3074265,34.0982901 38.6697176,31.1617961 41.1723342,28.7197266 C43.6749509,26.2776571 46.6518092,24.9860033 50.1029983,24.8447266 C53.4734579,24.7034498 56.4805892,25.6923722 59.1244827,27.8115234 Z M72.8070999,14.8847656 C72.2419929,15.470055 71.9594436,16.1663371 71.9594436,16.9736328 C71.9594436,17.7607461 72.2419929,18.4469372 72.8070999,19.0322266 C73.3923892,19.5973336 74.0886713,19.8798828 74.895967,19.8798828 C75.6830804,19.8798828 76.3692714,19.5973336 76.9545608,19.0322266 C77.5196678,18.4469372 77.802217,17.7607461 77.802217,16.9736328 C77.802217,16.1663371 77.5196678,15.470055 76.9545608,14.8847656 C76.3692714,14.3196586 75.6830804,14.0371094 74.895967,14.0371094 C74.0886713,14.0371094 73.3923892,14.3196586 72.8070999,14.8847656 Z M72.3227249,54.421875 C72.3227249,55.8548249 71.8787189,56.7932921 70.9906936,57.2373047 C70.2237627,57.6207701 69.3458418,57.4996776 68.3569045,56.8740234 C68.1550806,56.7327467 67.9835329,56.7630198 67.8422561,56.9648438 L65.2387405,60.4160156 C65.0772813,60.6380219 65.1075545,60.8196608 65.3295608,60.9609375 C66.8634226,62.0104219 68.4578077,62.5351562 70.1127639,62.5351562 C71.2429779,62.5351562 72.3025376,62.2828801 73.2914749,61.7783203 C74.583148,61.1324837 75.5922525,60.1637434 76.3188186,58.8720703 C77.0655671,57.5602148 77.4389358,56.0768312 77.4389358,54.421875 L77.4389358,25.2080078 C77.4389358,24.9456367 77.3077522,24.8144531 77.0453811,24.8144531 L72.7162795,24.8144531 C72.4539084,24.8144531 72.3227249,24.9456367 72.3227249,25.2080078 L72.3227249,54.421875 Z M87.6098342,36.984375 L103.291475,35.6220703 C102.847462,33.8863846 101.929177,32.5039114 100.536592,31.4746094 C99.144007,30.425125 97.4789845,29.9003906 95.5414749,29.9003906 C93.5030532,29.9003906 91.7472114,30.5663996 90.2738967,31.8984375 C88.8005821,33.210293 87.9125701,34.9055886 87.6098342,36.984375 Z M86.2475295,28.7197266 C88.8106934,26.0960155 91.9389173,24.7942707 95.6322952,24.8144531 C99.2449434,24.8346355 102.322712,26.1666534 104.865694,28.8105469 C107.408675,31.4342579 108.680147,34.5624818 108.680147,38.1953125 L108.680147,39.9208984 C108.680147,40.1630871 108.559054,40.2942707 108.316865,40.3144531 L88.3363967,42.0400391 C89.0225981,43.4931713 90.0518847,44.6637325 91.4242874,45.5517578 C92.8168724,46.4397831 94.3406202,46.8837891 95.9955764,46.8837891 C97.4487087,46.8837891 98.8109997,46.5406935 100.08249,45.8544922 C101.374164,45.1481084 102.40345,44.1894592 103.170381,42.9785156 C103.311658,42.7565093 103.493297,42.7060541 103.715303,42.8271484 L107.438936,45.0068359 C107.681125,45.1279303 107.73158,45.3095691 107.590303,45.5517578 C106.359177,47.5498147 104.704246,49.1240177 102.625459,50.2744141 C100.566855,51.4248104 98.3569163,52 95.9955764,52 C92.2618338,52 89.0629726,50.6679821 86.3988967,48.0039062 C83.7348209,45.3600128 82.402803,42.1611516 82.402803,38.4072266 C82.402803,34.572572 83.6843657,31.3434376 86.2475295,28.7197266 Z M154.664522,43.1298828 L154.664522,38.4375 C154.644339,37.8118458 154.634248,37.2366563 154.634248,36.7119141 L154.634248,35.8339844 C154.634248,35.4303365 154.614066,35.0367858 154.573701,34.6533203 C154.472789,33.866207 154.291151,33.0992876 154.02878,32.3525391 C153.504037,30.8186772 152.676572,29.4664772 151.546358,28.2958984 C150.416144,27.1455021 149.084126,26.2776722 147.550264,25.6923828 C146.803515,25.4300117 146.036596,25.2382819 145.249483,25.1171875 L144.977022,25.0869141 C144.855927,25.0869141 144.755017,25.076823 144.674287,25.0566406 L144.34128,25.0566406 C144.220185,25.0364582 144.139457,25.0263672 144.099092,25.0263672 L143.55417,25.0263672 L142.978975,25.0566406 C141.50566,25.177735 140.123187,25.5712857 138.831514,26.2373047 C137.681118,26.8427765 136.672013,27.629878 135.80417,28.5986328 C135.602346,28.8206391 135.410616,29.0527332 135.228975,29.2949219 C134.946421,28.9316388 134.653781,28.5986343 134.351045,28.2958984 C133.220831,27.1455021 131.888813,26.2776722 130.354951,25.6923828 C129.608203,25.4300117 128.841283,25.2382819 128.05417,25.1171875 L127.781709,25.0869141 C127.660615,25.0869141 127.559704,25.076823 127.478975,25.0566406 L127.145967,25.0566406 C127.024873,25.0364582 126.944144,25.0263672 126.90378,25.0263672 L126.358858,25.0263672 L125.783662,25.0566406 C124.310348,25.177735 122.927875,25.5712857 121.636201,26.2373047 C121.212371,26.459311 120.758274,26.7418603 120.273897,27.0849609 L120.273897,25.0566406 C120.273897,24.7942695 120.142713,24.6630859 119.880342,24.6630859 L115.490694,24.6630859 C115.228323,24.6630859 115.097139,24.7942695 115.097139,25.0566406 L115.097139,51.6064453 C115.097139,51.8688164 115.228323,52 115.490694,52 L119.880342,52 C120.142713,52 120.273897,51.8688164 120.273897,51.6064453 L120.273897,36.2578125 L120.30417,35.8945312 C120.30417,35.7936193 120.314261,35.6523447 120.334444,35.4707031 L120.334444,35.2285156 L120.364717,35.1376953 C120.384899,34.9964186 120.415173,34.8147798 120.455537,34.5927734 C120.556449,34.1285784 120.717906,33.6744814 120.939912,33.2304688 C121.222466,32.6653618 121.575652,32.1608095 121.999483,31.7167969 C123.109514,30.5260357 124.481896,29.8902999 126.11667,29.8095703 L126.419405,29.7792969 L126.540498,29.7792969 L126.782686,29.8095703 L127.08542,29.8095703 C127.105603,29.8297527 127.156058,29.8398438 127.236787,29.8398438 L127.388155,29.8701172 C127.832167,29.9306644 128.255991,30.0416659 128.659639,30.203125 C129.507299,30.5260433 130.233855,31.0205045 130.839326,31.6865234 C131.464981,32.33236 131.919078,33.0790973 132.201631,33.9267578 C132.342908,34.3505881 132.433727,34.7744119 132.474092,35.1982422 L132.504365,35.8339844 L132.504365,36.7119141 C132.504365,37.2366563 132.494274,37.8118458 132.474092,38.4375 L132.474092,40.1025391 C132.474092,41.4749418 132.464001,42.4840462 132.443819,43.1298828 C132.443819,45.6324995 132.433728,47.7213458 132.413545,49.3964844 L132.413545,51.5458984 C132.413545,51.8082695 132.544729,51.9394531 132.8071,51.9394531 L137.136201,51.9394531 C137.398573,51.9394531 137.529756,51.8082695 137.529756,51.5458984 L137.529756,49.3964844 C137.509574,47.7213458 137.499483,45.6324995 137.499483,43.1298828 C137.499483,42.7464174 137.489392,42.2721382 137.469209,41.7070312 L137.469209,40.1630859 C137.469209,38.8512304 137.459118,37.7513065 137.438936,36.8632812 L137.499483,35.8945312 L137.499483,35.4707031 L137.529756,35.3193359 L137.529756,35.2285156 L137.56003,35.1376953 C137.580212,34.9964186 137.610485,34.8147798 137.65085,34.5927734 C137.751762,34.1285784 137.913219,33.6744814 138.135225,33.2304688 C138.417778,32.6653618 138.770965,32.1608095 139.194795,31.7167969 C140.304827,30.5260357 141.677209,29.8902999 143.311983,29.8095703 L143.46335,29.8095703 L143.614717,29.7792969 L143.735811,29.7792969 L143.977998,29.8095703 L144.280733,29.8095703 C144.300915,29.8297527 144.35137,29.8398438 144.4321,29.8398438 L144.583467,29.8701172 C145.02748,29.9306644 145.451304,30.0416659 145.854951,30.203125 C146.702612,30.5260433 147.429167,31.0205045 148.034639,31.6865234 C148.660293,32.33236 149.11439,33.0790973 149.396944,33.9267578 C149.53822,34.3505881 149.62904,34.7744119 149.669405,35.1982422 L149.699678,35.8339844 L149.699678,36.7119141 C149.679496,37.2366563 149.669405,37.8118458 149.669405,38.4375 L149.669405,40.1025391 C149.649222,41.4749418 149.639131,42.4840462 149.639131,43.1298828 L149.608858,49.3964844 L149.608858,51.5458984 C149.608858,51.8082695 149.740041,51.9394531 150.002412,51.9394531 L154.331514,51.9394531 C154.593885,51.9394531 154.725069,51.8082695 154.725069,51.5458984 L154.725069,49.3964844 C154.704886,47.7213458 154.684704,45.6324995 154.664522,43.1298828 Z M170.284639,44.4619141 C171.939595,46.0765055 173.91744,46.8837891 176.218233,46.8837891 C178.55939,46.8837891 180.567508,46.0563234 182.242647,44.4013672 C183.897603,42.746411 184.725069,40.7483841 184.725069,38.4072266 C184.725069,36.066069 183.897603,34.0579511 182.242647,32.3828125 C180.567508,30.7278563 178.55939,29.9003906 176.218233,29.9003906 C173.91744,29.9003906 171.939595,30.7076742 170.284639,32.3222656 C168.649865,33.936857 167.802217,35.8945197 167.74167,38.1953125 L167.74167,38.5888672 C167.802217,40.8896599 168.649865,42.8473227 170.284639,44.4619141 Z M167.74167,27.78125 C170.385564,25.6620988 173.402786,24.6731764 176.793428,24.8144531 C180.244617,24.9557299 183.221475,26.2473836 185.724092,28.6894531 C188.226709,31.1315226 189.589,34.0680167 189.811006,37.4990234 C189.9321,39.4365331 189.659642,41.3033764 188.993623,43.0996094 C188.347787,44.8352951 187.389137,46.369134 186.117647,47.7011719 C183.433389,50.5670716 180.133617,52 176.218233,52 C173.049597,52 170.224104,51.0009866 167.74167,49.0029297 L167.74167,51.515625 C167.74167,51.7779961 167.610487,51.9091797 167.348115,51.9091797 L162.958467,51.9091797 C162.696096,51.9091797 162.564912,51.7779961 162.564912,51.515625 L162.564912,8.95117188 C162.564912,8.68880077 162.696096,8.55761719 162.958467,8.55761719 L167.348115,8.55761719 C167.610487,8.55761719 167.74167,8.68880077 167.74167,8.95117188 L167.74167,27.78125 Z M199.800264,14.2490234 C199.537893,14.2893882 199.426891,14.4306629 199.467256,14.6728516 L200.102998,18.9111328 C200.143363,19.1533215 200.284638,19.254232 200.526826,19.2138672 L214.1196,17.1855469 C214.361789,17.1653645 214.462699,17.0240899 214.422334,16.7617188 L213.786592,12.5537109 C213.746227,12.2913398 213.604953,12.1803383 213.362764,12.2207031 L199.800264,14.2490234 Z M199.376436,37.6806641 L214.331514,36.3789062 C213.907684,34.7037677 213.039854,33.3818408 211.727998,32.4130859 C210.39596,31.4039663 208.801575,30.8994141 206.944795,30.8994141 C204.987103,30.8994141 203.301899,31.5351499 201.889131,32.8066406 C200.496546,34.057949 199.658989,35.6826072 199.376436,37.6806641 Z M198.074678,29.7792969 C200.516747,27.2564978 203.503697,26.0052082 207.035615,26.0253906 C210.486805,26.0657554 213.423299,27.3372271 215.845186,29.8398437 C218.267073,32.3424604 219.477998,35.3395008 219.477998,38.8310547 L219.477998,40.4658203 C219.477998,40.6878266 219.366997,40.8089192 219.14499,40.8291016 L200.072725,42.4941406 C200.738744,43.8867257 201.717575,44.9967407 203.009248,45.8242188 C204.341286,46.6920616 205.804488,47.1259766 207.398897,47.1259766 C208.771299,47.1259766 210.062953,46.7929721 211.273897,46.1269531 C212.505023,45.4609342 213.493945,44.5426491 214.240694,43.3720703 C214.361788,43.1702464 214.523245,43.1298822 214.725069,43.2509766 L218.297334,45.3095703 C218.519341,45.4306647 218.569796,45.6022124 218.448701,45.8242188 C217.25794,47.741546 215.683737,49.2451117 213.726045,50.3349609 C211.748171,51.4449925 209.639142,52 207.398897,52 C203.806431,52 200.748844,50.7285283 198.226045,48.1855469 C195.683064,45.6425654 194.411592,42.5849788 194.411592,39.0126953 C194.411592,35.3596823 195.632608,32.2819136 198.074678,29.7792969 Z" id="path-1"></path>
        <filter x="-1.9%" y="-4.6%" width="103.8%" height="113.0%" filterUnits="objectBoundingBox" id="filter-2">
            <feOffset dx="0" dy="1" in="SourceAlpha" result="shadowOffsetOuter1"></feOffset>
            <feGaussianBlur stdDeviation="1" in="shadowOffsetOuter1" result="shadowBlurOuter1"></feGaussianBlur>
            <feColorMatrix values="0 0 0 0 0   0 0 0 0 0   0 0 0 0 0  0 0 0 0 0" type="matrix" in="shadowBlurOuter1"></feColorMatrix>
        </filter>
    </defs>
    <g id="Page-1" stroke="none" stroke-width="1" fill="none" fill-rule="evenodd">
        <g id="Artboard" transform="translate(-221.000000, -727.000000)">
            <g id="Group-7" transform="translate(148.000000, 226.000000)">
                <g id="Group-3" transform="translate(0.000000, 493.000000)">
                    <g id="Group-2" transform="translate(36.421053, 0.000000)">
                        <g id="djembé">
                            <use fill="black" fill-opacity="1" filter="url(#filter-2)" xlink:href="#path-1"></use>
                            <use fill="#FFFFFF" fill-rule="evenodd" xlink:href="#path-1"></use>
                        </g>
                    </g>
                </g>
            </g>
        </g>
    </g>
</svg>