<?xml version="1.0" encoding="UTF-8"?>
<svg width="184px" height="55px" viewBox="0 0 184 55" version="1.1" xmlns="http://www.w3.org/2000/svg" xmlns:xlink="http://www.w3.org/1999/xlink">
    <!-- Generator: Sketch 46.2 (44496) - http://www.bohemiancoding.com/sketch -->
    <title>djembe</title>
    <desc>Created with Sketch.</desc>
    <defs>
        <path d="M62.942842,38.6191406 L62.942842,38.2255859 C62.8822949,35.9247932 62.0346471,33.9671305 60.3998733,32.3525391 C58.7449171,30.7379477 56.7670723,29.9306641 54.4662795,29.9306641 C52.125122,29.9306641 50.1270951,30.7581297 48.4721389,32.4130859 C46.8171827,34.0680421 45.989717,36.066069 45.989717,38.4072266 C45.989717,40.7483841 46.8171827,42.756502 48.4721389,44.4316406 C50.1270951,46.0865968 52.125122,46.9140625 54.4662795,46.9140625 C56.7670723,46.9140625 58.7449171,46.1067789 60.3998733,44.4921875 C62.0346471,42.8775961 62.8822949,40.9199334 62.942842,38.6191406 Z M62.942842,27.8115234 L62.942842,9.01171875 C62.942842,8.74934765 63.0740256,8.61816406 63.3363967,8.61816406 L67.7260452,8.61816406 C67.9884163,8.61816406 68.1195999,8.74934765 68.1195999,9.01171875 L68.1195999,51.5458984 C68.1195999,51.8082695 67.9884163,51.9394531 67.7260452,51.9394531 L63.3363967,51.9394531 C63.0740256,51.9394531 62.942842,51.8082695 62.942842,51.5458984 L62.942842,49.0332031 C60.4604078,51.0110776 57.6349152,52 54.4662795,52 C52.5489522,52 50.7224731,51.6165403 48.9867874,50.8496094 C47.3116488,50.1028608 45.8484473,49.0634832 44.5971389,47.7314453 C41.8926983,44.8655456 40.6615908,41.4648634 40.9037795,37.5292969 C41.1257859,34.0982901 42.4880769,31.1617961 44.9906936,28.7197266 C47.4933103,26.2776571 50.4701685,24.9860033 53.9213577,24.8447266 C57.2918172,24.7034498 60.2989486,25.6923722 62.942842,27.8115234 Z M76.6254592,14.8847656 C76.0603522,15.470055 75.777803,16.1663371 75.777803,16.9736328 C75.777803,17.7607461 76.0603522,18.4469372 76.6254592,19.0322266 C77.2107486,19.5973336 77.9070307,19.8798828 78.7143264,19.8798828 C79.5014397,19.8798828 80.1876308,19.5973336 80.7729202,19.0322266 C81.3380272,18.4469372 81.6205764,17.7607461 81.6205764,16.9736328 C81.6205764,16.1663371 81.3380272,15.470055 80.7729202,14.8847656 C80.1876308,14.3196586 79.5014397,14.0371094 78.7143264,14.0371094 C77.9070307,14.0371094 77.2107486,14.3196586 76.6254592,14.8847656 Z M76.1410842,54.421875 C76.1410842,55.8548249 75.6970783,56.7932921 74.809053,57.2373047 C74.0421221,57.6207701 73.1642012,57.4996776 72.1752639,56.8740234 C71.97344,56.7327467 71.8018922,56.7630198 71.6606155,56.9648438 L69.0570999,60.4160156 C68.8956407,60.6380219 68.9259138,60.8196608 69.1479202,60.9609375 C70.681782,62.0104219 72.2761671,62.5351562 73.9311233,62.5351562 C75.0613373,62.5351562 76.120897,62.2828801 77.1098342,61.7783203 C78.4015074,61.1324837 79.4106118,60.1637434 80.137178,58.8720703 C80.8839265,57.5602148 81.2572952,56.0768312 81.2572952,54.421875 L81.2572952,25.2080078 C81.2572952,24.9456367 81.1261116,24.8144531 80.8637405,24.8144531 L76.5346389,24.8144531 C76.2722678,24.8144531 76.1410842,24.9456367 76.1410842,25.2080078 L76.1410842,54.421875 Z M91.4281936,36.984375 L107.109834,35.6220703 C106.665822,33.8863846 105.747537,32.5039114 104.354951,31.4746094 C102.962366,30.425125 101.297344,29.9003906 99.3598342,29.9003906 C97.3214126,29.9003906 95.5655708,30.5663996 94.0922561,31.8984375 C92.6189414,33.210293 91.7309295,34.9055886 91.4281936,36.984375 Z M90.0658889,28.7197266 C92.6290528,26.0960155 95.7572767,24.7942707 99.4506545,24.8144531 C103.063303,24.8346355 106.141072,26.1666534 108.684053,28.8105469 C111.227034,31.4342579 112.498506,34.5624818 112.498506,38.1953125 L112.498506,39.9208984 C112.498506,40.1630871 112.377414,40.2942707 112.135225,40.3144531 L92.1547561,42.0400391 C92.8409575,43.4931713 93.870244,44.6637325 95.2426467,45.5517578 C96.6352318,46.4397831 98.1589796,46.8837891 99.8139358,46.8837891 C101.267068,46.8837891 102.629359,46.5406935 103.90085,45.8544922 C105.192523,45.1481084 106.22181,44.1894592 106.98874,42.9785156 C107.130017,42.7565093 107.311656,42.7060541 107.533662,42.8271484 L111.257295,45.0068359 C111.499484,45.1279303 111.549939,45.3095691 111.408662,45.5517578 C110.177536,47.5498147 108.522605,49.1240177 106.443819,50.2744141 C104.385215,51.4248104 102.175276,52 99.8139358,52 C96.0801932,52 92.8813319,50.6679821 90.2172561,48.0039062 C87.5531803,45.3600128 86.2211624,42.1611516 86.2211624,38.4072266 C86.2211624,34.572572 87.5027251,31.3434376 90.0658889,28.7197266 Z M158.482881,43.1298828 L158.482881,38.4375 C158.462699,37.8118458 158.452608,37.2366563 158.452608,36.7119141 L158.452608,35.8339844 C158.452608,35.4303365 158.432426,35.0367858 158.392061,34.6533203 C158.291149,33.866207 158.10951,33.0992876 157.847139,32.3525391 C157.322397,30.8186772 156.494931,29.4664772 155.364717,28.2958984 C154.234503,27.1455021 152.902485,26.2776722 151.368623,25.6923828 C150.621875,25.4300117 149.854955,25.2382819 149.067842,25.1171875 L148.795381,25.0869141 C148.674287,25.0869141 148.573376,25.076823 148.492647,25.0566406 L148.159639,25.0566406 C148.038545,25.0364582 147.957816,25.0263672 147.917451,25.0263672 L147.37253,25.0263672 L146.797334,25.0566406 C145.32402,25.177735 143.941546,25.5712857 142.649873,26.2373047 C141.499477,26.8427765 140.490372,27.629878 139.62253,28.5986328 C139.420706,28.8206391 139.228976,29.0527332 139.047334,29.2949219 C138.764781,28.9316388 138.47214,28.5986343 138.169405,28.2958984 C137.039191,27.1455021 135.707173,26.2776722 134.173311,25.6923828 C133.426562,25.4300117 132.659643,25.2382819 131.87253,25.1171875 L131.600069,25.0869141 C131.478974,25.0869141 131.378064,25.076823 131.297334,25.0566406 L130.964326,25.0566406 C130.843232,25.0364582 130.762504,25.0263672 130.722139,25.0263672 L130.177217,25.0263672 L129.602022,25.0566406 C128.128707,25.177735 126.746234,25.5712857 125.454561,26.2373047 C125.030731,26.459311 124.576634,26.7418603 124.092256,27.0849609 L124.092256,25.0566406 C124.092256,24.7942695 123.961073,24.6630859 123.698701,24.6630859 L119.309053,24.6630859 C119.046682,24.6630859 118.915498,24.7942695 118.915498,25.0566406 L118.915498,51.6064453 C118.915498,51.8688164 119.046682,52 119.309053,52 L123.698701,52 C123.961073,52 124.092256,51.8688164 124.092256,51.6064453 L124.092256,36.2578125 L124.12253,35.8945312 C124.12253,35.7936193 124.132621,35.6523447 124.152803,35.4707031 L124.152803,35.2285156 L124.183076,35.1376953 C124.203259,34.9964186 124.233532,34.8147798 124.273897,34.5927734 C124.374809,34.1285784 124.536265,33.6744814 124.758272,33.2304688 C125.040825,32.6653618 125.394012,32.1608095 125.817842,31.7167969 C126.927874,30.5260357 128.300256,29.8902999 129.93503,29.8095703 L130.237764,29.7792969 L130.358858,29.7792969 L130.601045,29.8095703 L130.90378,29.8095703 C130.923962,29.8297527 130.974417,29.8398438 131.055147,29.8398438 L131.206514,29.8701172 C131.650527,29.9306644 132.07435,30.0416659 132.477998,30.203125 C133.325659,30.5260433 134.052214,31.0205045 134.657686,31.6865234 C135.28334,32.33236 135.737437,33.0790973 136.01999,33.9267578 C136.161267,34.3505881 136.252087,34.7744119 136.292451,35.1982422 L136.322725,35.8339844 L136.322725,36.7119141 C136.322725,37.2366563 136.312634,37.8118458 136.292451,38.4375 L136.292451,40.1025391 C136.292451,41.4749418 136.28236,42.4840462 136.262178,43.1298828 C136.262178,45.6324995 136.252087,47.7213458 136.231905,49.3964844 L136.231905,51.5458984 C136.231905,51.8082695 136.363088,51.9394531 136.625459,51.9394531 L140.954561,51.9394531 C141.216932,51.9394531 141.348115,51.8082695 141.348115,51.5458984 L141.348115,49.3964844 C141.327933,47.7213458 141.317842,45.6324995 141.317842,43.1298828 C141.317842,42.7464174 141.307751,42.2721382 141.287569,41.7070312 L141.287569,40.1630859 C141.287569,38.8512304 141.277478,37.7513065 141.257295,36.8632812 L141.317842,35.8945312 L141.317842,35.4707031 L141.348115,35.3193359 L141.348115,35.2285156 L141.378389,35.1376953 C141.398571,34.9964186 141.428844,34.8147798 141.469209,34.5927734 C141.570121,34.1285784 141.731578,33.6744814 141.953584,33.2304688 C142.236138,32.6653618 142.589324,32.1608095 143.013155,31.7167969 C144.123186,30.5260357 145.495568,29.8902999 147.130342,29.8095703 L147.281709,29.8095703 L147.433076,29.7792969 L147.55417,29.7792969 L147.796358,29.8095703 L148.099092,29.8095703 C148.119274,29.8297527 148.16973,29.8398438 148.250459,29.8398438 L148.401826,29.8701172 C148.845839,29.9306644 149.269663,30.0416659 149.673311,30.203125 C150.520971,30.5260433 151.247527,31.0205045 151.852998,31.6865234 C152.478652,32.33236 152.932749,33.0790973 153.215303,33.9267578 C153.35658,34.3505881 153.447399,34.7744119 153.487764,35.1982422 L153.518037,35.8339844 L153.518037,36.7119141 C153.497855,37.2366563 153.487764,37.8118458 153.487764,38.4375 L153.487764,40.1025391 C153.467582,41.4749418 153.45749,42.4840462 153.45749,43.1298828 L153.427217,49.3964844 L153.427217,51.5458984 C153.427217,51.8082695 153.558401,51.9394531 153.820772,51.9394531 L158.149873,51.9394531 C158.412244,51.9394531 158.543428,51.8082695 158.543428,51.5458984 L158.543428,49.3964844 C158.523246,47.7213458 158.503063,45.6324995 158.482881,43.1298828 Z M174.102998,44.4619141 C175.757954,46.0765055 177.735799,46.8837891 180.036592,46.8837891 C182.37775,46.8837891 184.385868,46.0563234 186.061006,44.4013672 C187.715962,42.746411 188.543428,40.7483841 188.543428,38.4072266 C188.543428,36.066069 187.715962,34.0579511 186.061006,32.3828125 C184.385868,30.7278563 182.37775,29.9003906 180.036592,29.9003906 C177.735799,29.9003906 175.757954,30.7076742 174.102998,32.3222656 C172.468224,33.936857 171.620577,35.8945197 171.56003,38.1953125 L171.56003,38.5888672 C171.620577,40.8896599 172.468224,42.8473227 174.102998,44.4619141 Z M171.56003,27.78125 C174.203923,25.6620988 177.221145,24.6731764 180.611787,24.8144531 C184.062976,24.9557299 187.039835,26.2473836 189.542451,28.6894531 C192.045068,31.1315226 193.407359,34.0680167 193.629365,37.4990234 C193.75046,39.4365331 193.478002,41.3033764 192.811983,43.0996094 C192.166146,44.8352951 191.207497,46.369134 189.936006,47.7011719 C187.251748,50.5670716 183.951976,52 180.036592,52 C176.867956,52 174.042464,51.0009866 171.56003,49.0029297 L171.56003,51.515625 C171.56003,51.7779961 171.428846,51.9091797 171.166475,51.9091797 L166.776826,51.9091797 C166.514455,51.9091797 166.383272,51.7779961 166.383272,51.515625 L166.383272,8.95117188 C166.383272,8.68880077 166.514455,8.55761719 166.776826,8.55761719 L171.166475,8.55761719 C171.428846,8.55761719 171.56003,8.68880077 171.56003,8.95117188 L171.56003,27.78125 Z M202.589326,36.984375 L218.270967,35.6220703 C217.826954,33.8863846 216.908669,32.5039114 215.516084,31.4746094 C214.123499,30.425125 212.458477,29.9003906 210.520967,29.9003906 C208.482545,29.9003906 206.726704,30.5663996 205.253389,31.8984375 C203.780074,33.210293 202.892062,34.9055886 202.589326,36.984375 Z M201.227022,28.7197266 C203.790186,26.0960155 206.91841,24.7942707 210.611787,24.8144531 C214.224436,24.8346355 217.302204,26.1666534 219.845186,28.8105469 C222.388167,31.4342579 223.659639,34.5624818 223.659639,38.1953125 L223.659639,39.9208984 C223.659639,40.1630871 223.538546,40.2942707 223.296358,40.3144531 L203.315889,42.0400391 C204.00209,43.4931713 205.031377,44.6637325 206.40378,45.5517578 C207.796365,46.4397831 209.320112,46.8837891 210.975069,46.8837891 C212.428201,46.8837891 213.790492,46.5406935 215.061983,45.8544922 C216.353656,45.1481084 217.382942,44.1894592 218.149873,42.9785156 C218.29115,42.7565093 218.472789,42.7060541 218.694795,42.8271484 L222.418428,45.0068359 C222.660617,45.1279303 222.711072,45.3095691 222.569795,45.5517578 C221.338669,47.5498147 219.683738,49.1240177 217.604951,50.2744141 C215.546347,51.4248104 213.336409,52 210.975069,52 C207.241326,52 204.042465,50.6679821 201.378389,48.0039062 C198.714313,45.3600128 197.382295,42.1611516 197.382295,38.4072266 C197.382295,34.572572 198.663858,31.3434376 201.227022,28.7197266 Z" id="path-1"></path>
        <filter x="-1.9%" y="-4.6%" width="103.8%" height="113.0%" filterUnits="objectBoundingBox" id="filter-2">
            <feOffset dx="0" dy="1" in="SourceAlpha" result="shadowOffsetOuter1"></feOffset>
            <feGaussianBlur stdDeviation="1" in="shadowOffsetOuter1" result="shadowBlurOuter1"></feGaussianBlur>
            <feColorMatrix values="0 0 0 0 0   0 0 0 0 0   0 0 0 0 0  0 0 0 0 0" type="matrix" in="shadowBlurOuter1"></feColorMatrix>
        </filter>
    </defs>
    <g id="Page-1" stroke="none" stroke-width="1" fill="none" fill-rule="evenodd">
        <g id="Artboard" transform="translate(-225.000000, -723.000000)">
            <g id="Group-7" transform="translate(148.000000, 226.000000)">
                <g id="Group-3" transform="translate(0.000000, 489.000000)">
                    <g id="Group-2" transform="translate(36.421053, 0.000000)">
                        <g id="djembe">
                            <use fill="black" fill-opacity="1" filter="url(#filter-2)" xlink:href="#path-1"></use>
                            <use fill="#FFFFFF" fill-rule="evenodd" xlink:href="#path-1"></use>
                        </g>
                    </g>
                </g>
            </g>
        </g>
    </g>
</svg>